<svg width="1024" height="1024" viewBox="0 0 1024 1024" xmlns="http://www.w3.org/2000/svg">
<g transform="translate(512 512) scale(4) translate(-97 -126)" fill="#0F8B8D">
<path d="M63.0001 153C55.7597 153 49.4414 151.482 44.0447 148.446C38.6481 145.41 34.458 141.163 31.4748 135.705C28.4916 130.246 27 123.867 27 116.569C27 109.24 28.4916 102.831 31.4748 97.3412C34.458 91.8524 38.6481 87.5897 44.0447 84.5536C49.4414 81.5181 55.7597 80 63.0001 80C70.2403 80 76.5586 81.5181 81.9552 84.5536C87.352 87.5897 91.5421 91.8524 94.5253 97.3412C97.5084 102.831 99 109.24 99 116.569C99 123.867 97.5084 130.246 94.5253 135.705C91.5421 141.163 87.352 145.41 81.9552 148.446C76.5586 151.482 70.2403 153 63.0001 153ZM63.0505 141.454C67.7429 141.454 71.6316 140.32 74.715 138.051C77.7991 135.781 80.0781 132.761 81.5533 128.989C83.0614 125.217 83.8153 121.062 83.8153 116.523C83.8153 112.015 83.0614 107.875 81.5533 104.103C80.0781 100.301 77.7991 97.2493 74.715 94.9495C71.6316 92.6497 67.7429 91.4995 63.0505 91.4995C58.324 91.4995 54.4026 92.6497 51.285 94.9495C48.2009 97.2493 45.9049 100.301 44.3968 104.103C42.9217 107.875 42.1846 112.015 42.1846 116.523C42.1846 121.062 42.9217 125.217 44.3968 128.989C45.9049 132.761 48.2009 135.781 51.285 138.051C54.4026 140.32 58.324 141.454 63.0505 141.454Z"/>
<path d="M131 153C123.76 153 117.441 151.503 112.045 148.508C106.648 145.514 102.458 141.325 99.4748 135.942C96.4916 130.558 95 124.266 95 117.068C95 109.839 96.4916 103.518 99.4748 98.1037C102.458 92.6901 106.648 88.4857 112.045 85.4912C117.441 82.4973 123.76 81 131 81C138.24 81 144.559 82.4973 149.955 85.4912C155.352 88.4857 159.542 92.6901 162.525 98.1037C165.508 103.518 167 109.839 167 117.068C167 124.266 165.508 130.558 162.525 135.942C159.542 141.325 155.352 145.514 149.955 148.508C144.559 151.503 138.24 153 131 153ZM131.05 141.613C135.743 141.613 139.631 140.494 142.715 138.255C145.799 136.017 148.078 133.038 149.553 129.318C151.061 125.598 151.815 121.499 151.815 117.023C151.815 112.577 151.061 108.493 149.553 104.773C148.078 101.023 145.799 98.013 142.715 95.7447C139.631 93.4764 135.743 92.342 131.05 92.342C126.324 92.342 122.403 93.4764 119.285 95.7447C116.201 98.013 113.905 101.023 112.397 104.773C110.922 108.493 110.185 112.577 110.185 117.023C110.185 121.499 110.922 125.598 112.397 129.318C113.905 133.038 116.201 136.017 119.285 138.255C122.403 140.494 126.324 141.613 131.05 141.613Z"/>
<path d="M164.174 117C165.735 117 167 118.276 167 119.852V169.148C167 170.723 165.735 172 164.174 172H154.826C153.265 172 152 170.723 152 169.148V119.852C152 118.276 153.265 117 154.826 117H164.174Z"/>
</g>
</svg>
